<svg width="274" height="213" viewBox="0 0 274 213" fill="none" xmlns="http://www.w3.org/2000/svg">
<path d="M234.283 24.3242L135.244 204.092H135.502L135.76 203.571C135.52 136.494 106.733 108.088 64.576 105.182C61.3833 104.962 58.114 104.888 54.7746 104.955C2.38604 111.186 -11.3584 182.596 44.2007 201.339C47.4816 202.446 51.0041 203.369 54.7746 204.084H135.502M131.118 120.115L234.283 24.3242L197.144 204.092M155.878 204.092C155.878 204.092 181.153 204.614 221.388 204.092C261.622 203.571 293.346 127.819 227.836 107.274M44.2007 201.339L106.616 146.823M64.576 120.115C64.576 129.874 68.2549 143.834 77.2138 155.041M64.576 105.182C80.8361 51.144 131.118 33.3126 174.189 64.6437" stroke="url(#paint0_linear_1866_919)" stroke-width="17"/>
<defs>
<linearGradient id="paint0_linear_1866_919" x1="136.999" y1="24.3242" x2="136.999" y2="204.324" gradientUnits="userSpaceOnUse">
<stop stop-color="#27C2AA"/>
<stop offset="0.451923" stop-color="#807DFE"/>
<stop offset="1" stop-color="#348CD7"/>
</linearGradient>
</defs>
</svg>
